<svg xmlns="http://www.w3.org/2000/svg" width="1280" height="800" viewBox="0 0 1280 800">
<rect width="1280" height="800" fill="#fffdf7"/><rect x="0" y="0" width="1280" height="70" fill="#183c36"/>
<g font-family="Arial,sans-serif"><text x="48" y="44" font-size="25" fill="#fffdf7" font-weight="700">FIELDNOTES</text><text x="760" y="42" font-size="14" fill="#dce8dd">Journal</text><text x="870" y="42" font-size="14" fill="#dce8dd">Places</text><text x="970" y="42" font-size="14" fill="#dce8dd">About</text><rect x="1090" y="20" width="140" height="32" rx="16" fill="#dce8dd"/><text x="1116" y="41" font-size="12" fill="#183c36">SAMPLE WEBSITE</text>
<text x="65" y="141" font-size="12" letter-spacing="3" fill="#b65033">A WEEKEND OUTSIDE</text><text x="65" y="207" font-size="53" font-weight="700" fill="#183c36">Take the scenic route.</text><text x="66" y="249" font-size="19" fill="#62756b">Small adventures. A slower pace. A little room to breathe.</text>
<rect x="65" y="286" width="1150" height="325" rx="12" fill="#e5b47d"/><circle cx="934" cy="365" r="49" fill="#fff0bc"/>
<path d="M65 509L247 335L427 509L616 342L887 547L1102 423L1215 478V611H65Z" fill="#799081"/><path d="M65 537L343 452L544 537L754 418L984 541L1215 493V611H65Z" fill="#41695a"/><path d="M65 576Q359 470 638 563T1215 551V611H65Z" fill="#244c41"/><path d="M668 611Q561 578 671 547Q745 519 686 503" fill="none" stroke="#e3bf88" stroke-width="16"/>
<text x="65" y="657" font-size="11" letter-spacing="2" fill="#b65033">THE TRAIL EDIT</text><text x="65" y="696" font-size="27" font-weight="700" fill="#183c36">Less scrolling. More wandering.</text><text x="65" y="731" font-size="16" fill="#62756b">A collection of places worth putting your phone away for.</text><rect x="921" y="641" width="294" height="103" rx="10" fill="#eef0e6"/><text x="943" y="672" font-size="12" fill="#62756b">SAMPLE BOOKING REFERENCE</text><text x="943" y="708" font-size="24" font-weight="700" fill="#183c36">DEMO-2026-042</text>
<text x="65" y="778" font-size="11" fill="#62756b">Fictional sample created for Stillframe. All artwork is included under the MIT license.</text></g></svg>
